<?xml version="1.0" encoding="UTF-8"?>
<svg width="89" height="40" viewBox="0 0 89 40" fill="none" xmlns="http://www.w3.org/2000/svg">
  <path d="M16.2 31.9H23L12.9 8H6.7L0 23.9H6.3L7.4 21H14.9L16.2 31.9ZM9 16.7L12.1 17.3L8.9 17.9L9 16.7Z" fill="black"/>
  <path d="M42.5 8L36.4 31.9H29.6L35.7 8H42.5Z" fill="black"/>
  <path d="M63.2 8H69.9L64.4 31.9H57.7L58.9 26.8H51.4L49.3 31.9H42.6L55.7 8H62L63.2 8ZM55.1 22.1H60.4L59.3 16.7L55.1 22.1Z" fill="black"/>
  <path d="M89 8L82.9 31.9H76.2L82.3 8H89Z" fill="black"/>
</svg>